<?xml version="1.0" encoding="UTF-8" standalone="no" ?>
<!DOCTYPE svg PUBLIC "-//W3C//DTD SVG 1.1//EN" "http://www.w3.org/Graphics/SVG/1.1/DTD/svg11.dtd">
<svg xmlns="http://www.w3.org/2000/svg" xmlns:xlink="http://www.w3.org/1999/xlink" version="1.1" width="1080" height="1080" viewBox="0 0 1080 1080" xml:space="preserve">
<desc>Created with Fabric.js 5.2.4</desc>
<defs>
</defs>
<g transform="matrix(1 0 0 1 540 540)" id="98b77f28-0232-471b-8ba8-3094d63e0bb5"  >
<rect style="stroke: none; stroke-width: 1; stroke-dasharray: none; stroke-linecap: butt; stroke-dashoffset: 0; stroke-linejoin: miter; stroke-miterlimit: 4; fill: rgb(255,255,255); fill-rule: nonzero; opacity: 1; visibility: hidden;" vector-effect="non-scaling-stroke"  x="-540" y="-540" rx="0" ry="0" width="1080" height="1080" />
</g>
<g transform="matrix(1 0 0 1 540 540)" id="d6841a60-abdf-40dd-b72e-b2e48b7233aa"  >
</g>
<g transform="matrix(8.24 0 0 8.24 540 540)"  >
<g style=""   >
		<g transform="matrix(1 0 0 1 -48 -0.5)"  >
<linearGradient id="SVGID_paint0_linear_425_166_3" gradientUnits="userSpaceOnUse" gradientTransform="matrix(1 0 0 1 -17.5 -19.5)"  x1="4.66832" y1="24.1098" x2="34.1078" y2="13.9886">
<stop offset="0%" style="stop-color:rgb(248,158,0);stop-opacity: 1"/>
<stop offset="100%" style="stop-color:rgb(218,47,104);stop-opacity: 1"/>
</linearGradient>
<circle style="stroke: none; stroke-width: 1; stroke-dasharray: none; stroke-linecap: butt; stroke-dashoffset: 0; stroke-linejoin: miter; stroke-miterlimit: 4; fill: url(#SVGID_paint0_linear_425_166_3); fill-rule: nonzero; opacity: 1;" vector-effect="non-scaling-stroke"  cx="0" cy="0" r="13.5" />
</g>
		<g transform="matrix(1 0 0 1 -48.32 -1)"  >
<path style="stroke: none; stroke-width: 1; stroke-dasharray: none; stroke-linecap: butt; stroke-dashoffset: 0; stroke-linejoin: miter; stroke-miterlimit: 4; fill: rgb(255,255,255); fill-rule: nonzero; opacity: 1;" vector-effect="non-scaling-stroke"  transform=" translate(-17.18, -19)" d="M 10.4286 15.1351 C 14.6075 14.0893 18.7766 13.046 22.9559 12 C 23.1752 12.848 23.3923 13.6879 23.6118 14.5371 C 20.3486 15.3537 17.0907 16.1692 13.8329 16.9846 C 13.8336 16.9898 13.8342 16.9949 13.835 17.0001 L 23.9228 17.0001 C 23.9245 17.037 23.9274 17.0668 23.9274 17.0969 C 23.9276 19.2878 23.9287 21.4789 23.927 23.6698 C 23.926 24.8933 22.9172 25.9325 21.6794 25.9896 C 21.5589 25.9952 21.4381 25.9986 21.3174 25.9986 C 18.6832 25.9992 16.049 25.9995 13.415 25.9986 C 12.7566 25.9984 12.1814 25.7789 11.7114 25.3255 C 11.2836 24.9126 11.0414 24.4063 11.0043 23.8126 C 10.9969 23.6941 10.9946 23.5752 10.9946 23.4565 C 10.994 21.5189 10.9931 19.5814 10.9959 17.644 C 10.9963 17.4423 10.9738 17.2479 10.9213 17.0522 C 10.7567 16.4395 10.6021 15.8244 10.4438 15.21 C 10.4385 15.1894 10.4353 15.1682 10.4286 15.1351 Z M 11.6049 19.6276 L 11.6049 19.7292 C 11.6049 21.0375 11.6047 22.3459 11.6057 23.6541 C 11.6057 23.7256 11.612 23.7977 11.6228 23.8685 C 11.7616 24.7735 12.5004 25.3983 13.4305 25.3983 C 16.0963 25.3983 18.7622 25.3983 21.4281 25.398 C 21.5011 25.398 21.5742 25.3946 21.6469 25.3893 C 22.5983 25.3211 23.3167 24.5605 23.3167 23.621 C 23.3167 22.3282 23.3167 21.0357 23.3167 19.7429 L 23.3167 19.6276 L 11.6049 19.6276 Z M 13.4705 17.6036 C 13.4906 17.6357 13.5024 17.6568 13.5162 17.6763 C 13.8161 18.1019 14.1171 18.5267 14.4147 18.9539 C 14.4495 19.0038 14.4836 19.0237 14.5453 19.0232 C 14.9044 19.0203 15.2635 19.0218 15.6225 19.0215 C 15.6496 19.0215 15.6768 19.0177 15.7073 19.0153 C 15.7006 18.998 15.6991 18.9882 15.6939 18.9809 C 15.3824 18.5369 15.0714 18.0923 14.7566 17.6504 C 14.7379 17.6241 14.6894 17.6062 14.6543 17.6053 C 14.4605 17.601 14.2666 17.6032 14.0728 17.6032 C 13.877 17.6032 13.6809 17.6032 13.4703 17.6032 L 13.4705 17.6036 Z M 18.6032 19.0218 C 18.5813 18.9858 18.5696 18.9638 18.5555 18.9437 C 18.2552 18.5175 17.9536 18.0923 17.6552 17.6648 C 17.6218 17.6171 17.5873 17.6021 17.5308 17.6023 C 17.1681 17.6046 16.8053 17.6034 16.4426 17.6036 C 16.419 17.6036 16.3953 17.6059 16.3602 17.6077 C 16.3772 17.634 16.3865 17.6494 16.3966 17.6639 C 16.6725 18.0572 16.9565 18.4452 17.2204 18.8462 C 17.3149 18.9897 17.4181 19.032 17.5838 19.0256 C 17.9169 19.0126 18.2508 19.0217 18.603 19.0217 L 18.6032 19.0218 Z M 19.2443 17.6036 C 19.2651 17.6367 19.2767 17.6575 19.2903 17.6771 C 19.5906 18.103 19.8922 18.5281 20.19 18.9555 C 20.2253 19.0064 20.2614 19.0235 20.3217 19.023 C 20.6779 19.0205 21.0341 19.0218 21.3903 19.0215 C 21.418 19.0215 21.4455 19.0181 21.4814 19.0158 C 21.4709 18.9946 21.4659 18.9803 21.4577 18.9685 C 21.1494 18.529 20.8415 18.0893 20.5302 17.6519 C 20.5114 17.6256 20.4641 17.6062 20.4297 17.6055 C 20.2232 17.6012 20.0163 17.6034 19.8095 17.6034 C 19.6263 17.6034 19.443 17.6034 19.2443 17.6034 L 19.2443 17.6036 Z M 21.0964 14.5442 C 21.0757 14.5228 21.0679 14.513 21.0586 14.505 C 20.6476 14.1524 20.2369 13.7993 19.824 13.4488 C 19.8032 13.4312 19.7605 13.4237 19.7328 13.4304 C 19.3634 13.52 18.9948 13.6132 18.6259 13.7056 C 18.6124 13.709 18.6 13.7159 18.5652 13.7298 C 18.5948 13.749 18.612 13.7576 18.6261 13.7696 C 18.9782 14.07 19.3372 14.3632 19.6782 14.6753 C 19.82 14.8051 19.9441 14.8502 20.1352 14.7906 C 20.4456 14.6937 20.7659 14.6272 21.0964 14.5442 Z M 15.4986 15.9453 C 15.4836 15.9258 15.4778 15.9147 15.4691 15.907 C 15.0647 15.562 14.6591 15.2185 14.2572 14.8708 C 14.2072 14.8276 14.1683 14.8209 14.1064 14.837 C 13.8061 14.9153 13.5043 14.9878 13.2033 15.0628 C 13.1338 15.0801 13.0649 15.099 12.9773 15.1221 C 13.0761 15.2072 13.1613 15.2803 13.2462 15.3533 C 13.5732 15.6341 13.8995 15.9157 14.2286 16.194 C 14.2572 16.2183 14.309 16.2395 14.3424 16.2316 C 14.7242 16.1407 15.1046 16.044 15.4986 15.9453 Z M 15.7861 14.4169 C 15.7966 14.4366 15.7982 14.4435 15.8026 14.4471 C 16.2155 14.8019 16.6278 15.1573 17.0436 15.5089 C 17.0703 15.5314 17.1268 15.5365 17.164 15.5276 C 17.5122 15.4442 17.8591 15.3562 18.2063 15.269 C 18.235 15.2619 18.2627 15.2517 18.3029 15.2393 C 17.8919 14.8874 17.4905 14.5485 17.0961 14.2022 C 17.013 14.1293 16.9401 14.1147 16.841 14.1511 C 16.7733 14.1761 16.7002 14.187 16.6295 14.2048 C 16.3508 14.2749 16.0721 14.3449 15.7861 14.4171 L 15.7861 14.4169 Z M 11.6095 19.0162 L 12.815 19.0162 C 12.8142 19.0048 12.8159 18.9974 12.8131 18.9933 C 12.4962 18.5418 12.1793 18.0903 11.8607 17.6397 C 11.8485 17.6224 11.8223 17.6068 11.8015 17.6053 C 11.7393 17.6008 11.6765 17.6036 11.6097 17.6036 L 11.6097 19.0162 L 11.6095 19.0162 Z M 11.5232 16.9402 C 11.9203 16.8407 12.308 16.7436 12.7209 16.6401 C 12.6854 16.6142 12.6667 16.6025 12.6501 16.5883 C 12.2694 16.2639 11.8889 15.9393 11.5087 15.6146 C 11.3817 15.5062 11.3361 15.5015 11.1727 15.5868 C 11.2888 16.0348 11.405 16.484 11.5232 16.9404 L 11.5232 16.9402 Z M 22.1289 17.607 C 22.4405 18.0493 22.7465 18.4745 23.0405 18.9076 C 23.1138 19.0156 23.1924 19.0427 23.3106 19.011 L 23.3106 17.6068 L 22.1289 17.6068 L 22.1289 17.607 Z M 22.5126 12.7325 C 22.1303 12.8287 21.7588 12.922 21.3871 13.0154 L 21.3783 13.042 C 21.3947 13.052 21.4127 13.0601 21.427 13.0723 C 21.8052 13.3944 22.1868 13.7125 22.5581 14.042 C 22.6562 14.1289 22.74 14.1609 22.8633 14.0891 C 22.7474 13.6408 22.6306 13.1891 22.5124 12.7323 L 22.5126 12.7325 Z" stroke-linecap="round" />
</g>
		<g transform="matrix(1 0 0 1 -47.66 2.53)"  >
<path style="stroke: none; stroke-width: 1; stroke-dasharray: none; stroke-linecap: butt; stroke-dashoffset: 0; stroke-linejoin: miter; stroke-miterlimit: 4; fill: rgb(255,255,255); fill-rule: nonzero; opacity: 1;" vector-effect="non-scaling-stroke"  transform=" translate(-17.84, -22.53)" d="M 16.3951 20.7748 C 16.4152 20.7842 16.444 20.7953 16.4707 20.8103 C 17.2734 21.2656 18.076 21.7212 18.8785 22.1767 C 19.0242 22.2593 19.1698 22.3421 19.3153 22.4252 C 19.4252 22.4881 19.4256 22.572 19.3143 22.6353 C 18.4984 23.0994 17.6821 23.5628 16.8661 24.0263 C 16.7341 24.1013 16.6026 24.1768 16.4699 24.2506 C 16.3562 24.3139 16.2827 24.2744 16.2827 24.148 C 16.2821 23.0681 16.2827 21.9881 16.2819 20.9081 C 16.2819 20.8371 16.3027 20.7859 16.3951 20.7748 Z" stroke-linecap="round" />
</g>
</g>
</g>
</svg>